<mxfile host="app.diagrams.net" modified="2022-06-29T07:46:36.731Z" agent="5.0 (Windows NT 10.0; Win64; x64) AppleWebKit/537.36 (KHTML, like Gecko) Chrome/103.0.0.0 Safari/537.36" etag="WVUMqkB-7qd7Lfj5WINo" version="20.0.3" type="github">
  <diagram id="-AZNz4xqfqHh4EXn1rlM" name="第 1 页">
    <mxGraphModel dx="1096" dy="735" grid="1" gridSize="10" guides="1" tooltips="1" connect="1" arrows="1" fold="1" page="1" pageScale="1" pageWidth="827" pageHeight="1169" math="0" shadow="0">
      <root>
        <mxCell id="0" />
        <mxCell id="1" parent="0" />
        <mxCell id="jEjgb2xcBFfW1WI0vrEP-3" value="" style="edgeStyle=orthogonalEdgeStyle;rounded=0;orthogonalLoop=1;jettySize=auto;html=1;fontSize=11;align=center;verticalAlign=middle;labelBackgroundColor=none;" parent="1" source="jEjgb2xcBFfW1WI0vrEP-1" target="jEjgb2xcBFfW1WI0vrEP-2" edge="1">
          <mxGeometry relative="1" as="geometry" />
        </mxCell>
        <mxCell id="jEjgb2xcBFfW1WI0vrEP-1" value="spring的容器创建过程" style="rounded=0;whiteSpace=wrap;html=1;fillColor=#f8cecc;strokeColor=#b85450;align=center;verticalAlign=middle;labelBackgroundColor=none;" parent="1" vertex="1">
          <mxGeometry x="240" y="20" width="150" height="60" as="geometry" />
        </mxCell>
        <mxCell id="jEjgb2xcBFfW1WI0vrEP-5" value="" style="edgeStyle=orthogonalEdgeStyle;rounded=0;orthogonalLoop=1;jettySize=auto;html=1;fontSize=11;align=center;verticalAlign=middle;labelBackgroundColor=none;" parent="1" source="jEjgb2xcBFfW1WI0vrEP-2" target="jEjgb2xcBFfW1WI0vrEP-4" edge="1">
          <mxGeometry relative="1" as="geometry" />
        </mxCell>
        <mxCell id="jEjgb2xcBFfW1WI0vrEP-2" value="&lt;div style=&quot;&quot;&gt;&lt;span style=&quot;font-size: 11px; color: rgb(51, 51, 51); font-family: &amp;quot;Open Sans&amp;quot;, &amp;quot;Clear Sans&amp;quot;, &amp;quot;Helvetica Neue&amp;quot;, Helvetica, Arial, &amp;quot;Segoe UI Emoji&amp;quot;, sans-serif; orphans: 4;&quot;&gt;通过（beanFactory,DefaultListableBeanFactory）,向bean工厂中设置一些参数（BeanPostProcessor,Aware接口的子类）等等属性&lt;/span&gt;&lt;/div&gt;" style="rounded=0;whiteSpace=wrap;html=1;perimeterSpacing=0;strokeWidth=0;align=center;fillColor=#fff2cc;strokeColor=#d6b656;gradientColor=none;verticalAlign=middle;labelBackgroundColor=none;" parent="1" vertex="1">
          <mxGeometry x="85" y="110" width="460" height="90" as="geometry" />
        </mxCell>
        <mxCell id="jEjgb2xcBFfW1WI0vrEP-7" value="" style="edgeStyle=orthogonalEdgeStyle;rounded=0;orthogonalLoop=1;jettySize=auto;html=1;fontFamily=Helvetica;fontSize=11;align=center;verticalAlign=middle;labelBackgroundColor=none;" parent="1" source="jEjgb2xcBFfW1WI0vrEP-4" target="jEjgb2xcBFfW1WI0vrEP-6" edge="1">
          <mxGeometry relative="1" as="geometry" />
        </mxCell>
        <mxCell id="jEjgb2xcBFfW1WI0vrEP-4" value="&lt;div style=&quot;orphans: 4;&quot;&gt;&lt;span style=&quot;font-size: 11px;&quot;&gt;加载bean对象,创建定义对象beanDefinition用于创建bean对象(xml或者注解的解析过程)&lt;/span&gt;&lt;/div&gt;" style="rounded=0;whiteSpace=wrap;html=1;align=center;fillColor=#fff2cc;strokeColor=#d6b656;strokeWidth=0;gradientColor=none;verticalAlign=middle;labelBackgroundColor=none;" parent="1" vertex="1">
          <mxGeometry x="72.5" y="230" width="485" height="135" as="geometry" />
        </mxCell>
        <mxCell id="jEjgb2xcBFfW1WI0vrEP-9" value="" style="edgeStyle=orthogonalEdgeStyle;rounded=0;orthogonalLoop=1;jettySize=auto;html=1;fontFamily=Helvetica;fontSize=11;align=center;verticalAlign=middle;labelBackgroundColor=none;" parent="1" source="jEjgb2xcBFfW1WI0vrEP-6" target="jEjgb2xcBFfW1WI0vrEP-8" edge="1">
          <mxGeometry relative="1" as="geometry" />
        </mxCell>
        <mxCell id="jEjgb2xcBFfW1WI0vrEP-6" value="beanFactoryPostProcessor的处理" style="whiteSpace=wrap;html=1;align=center;fillColor=#fff2cc;strokeColor=#d6b656;rounded=0;strokeWidth=0;gradientColor=none;verticalAlign=middle;labelBackgroundColor=none;" parent="1" vertex="1">
          <mxGeometry x="123.75" y="400" width="382.5" height="50" as="geometry" />
        </mxCell>
        <mxCell id="jEjgb2xcBFfW1WI0vrEP-13" value="" style="edgeStyle=orthogonalEdgeStyle;rounded=0;orthogonalLoop=1;jettySize=auto;html=1;fontFamily=Helvetica;fontSize=11;align=center;verticalAlign=middle;labelBackgroundColor=none;" parent="1" source="jEjgb2xcBFfW1WI0vrEP-8" target="jEjgb2xcBFfW1WI0vrEP-12" edge="1">
          <mxGeometry relative="1" as="geometry" />
        </mxCell>
        <mxCell id="jEjgb2xcBFfW1WI0vrEP-8" value="BeanPostProcessor的注册功能,方便后续对bean对象完成具体的扩展功能" style="whiteSpace=wrap;html=1;align=center;fillColor=#fff2cc;strokeColor=#d6b656;rounded=0;strokeWidth=0;gradientColor=none;verticalAlign=middle;labelBackgroundColor=none;" parent="1" vertex="1">
          <mxGeometry x="158.75" y="490" width="312.5" height="115" as="geometry" />
        </mxCell>
        <mxCell id="jEjgb2xcBFfW1WI0vrEP-15" value="" style="edgeStyle=orthogonalEdgeStyle;rounded=0;orthogonalLoop=1;jettySize=auto;html=1;fontFamily=Helvetica;fontSize=11;align=center;verticalAlign=middle;labelBackgroundColor=none;" parent="1" source="jEjgb2xcBFfW1WI0vrEP-12" target="jEjgb2xcBFfW1WI0vrEP-14" edge="1">
          <mxGeometry relative="1" as="geometry" />
        </mxCell>
        <mxCell id="jEjgb2xcBFfW1WI0vrEP-12" value="通过反射的方式将BeanDefinition对象实例化成具体的bean对象" style="whiteSpace=wrap;html=1;align=center;fillColor=#fff2cc;strokeColor=#d6b656;rounded=0;strokeWidth=0;gradientColor=none;verticalAlign=middle;labelBackgroundColor=none;" parent="1" vertex="1">
          <mxGeometry x="138.75" y="630" width="352.5" height="72.5" as="geometry" />
        </mxCell>
        <mxCell id="jEjgb2xcBFfW1WI0vrEP-17" value="" style="edgeStyle=orthogonalEdgeStyle;rounded=0;orthogonalLoop=1;jettySize=auto;html=1;fontFamily=Helvetica;fontSize=11;align=center;verticalAlign=middle;labelBackgroundColor=none;" parent="1" source="jEjgb2xcBFfW1WI0vrEP-14" target="jEjgb2xcBFfW1WI0vrEP-16" edge="1">
          <mxGeometry relative="1" as="geometry" />
        </mxCell>
        <mxCell id="jEjgb2xcBFfW1WI0vrEP-14" value="bean对象的初始化&lt;br&gt;填充属性,调用aware子类的方法,调用BeanPostProcessor的前置处理方法,嗲用init-method方法,调用BeanPostProcessor的后置处理方法" style="whiteSpace=wrap;html=1;align=center;fillColor=#fff2cc;strokeColor=#d6b656;rounded=0;strokeWidth=0;gradientColor=none;verticalAlign=middle;labelBackgroundColor=none;" parent="1" vertex="1">
          <mxGeometry x="118.75" y="740" width="392.5" height="131.25" as="geometry" />
        </mxCell>
        <mxCell id="jEjgb2xcBFfW1WI0vrEP-19" value="" style="edgeStyle=orthogonalEdgeStyle;rounded=0;orthogonalLoop=1;jettySize=auto;html=1;fontFamily=Helvetica;fontSize=11;align=center;verticalAlign=middle;labelBackgroundColor=none;" parent="1" source="jEjgb2xcBFfW1WI0vrEP-16" target="jEjgb2xcBFfW1WI0vrEP-18" edge="1">
          <mxGeometry relative="1" as="geometry" />
        </mxCell>
        <mxCell id="jEjgb2xcBFfW1WI0vrEP-16" value="生成完整的bean对象,通过getBean方法可以直接获取" style="whiteSpace=wrap;html=1;align=center;fillColor=#fff2cc;strokeColor=#d6b656;rounded=0;strokeWidth=0;gradientColor=none;verticalAlign=middle;labelBackgroundColor=none;" parent="1" vertex="1">
          <mxGeometry x="162.5" y="900" width="305" height="60" as="geometry" />
        </mxCell>
        <mxCell id="jEjgb2xcBFfW1WI0vrEP-18" value="x销毁过程" style="whiteSpace=wrap;html=1;align=center;fillColor=#fff2cc;strokeColor=#d6b656;rounded=0;strokeWidth=0;gradientColor=none;verticalAlign=middle;labelBackgroundColor=none;" parent="1" vertex="1">
          <mxGeometry x="202.5" y="990" width="225" height="60" as="geometry" />
        </mxCell>
      </root>
    </mxGraphModel>
  </diagram>
</mxfile>
